<?xml version="1.0" encoding="UTF-8"?>
<svg id="Layer_1" data-name="Layer 1" xmlns="http://www.w3.org/2000/svg" viewBox="0 0 1080 1080">
  <defs>
    <style>
      .cls-1 {
        fill: #f6f6f6;
      }

      .cls-2 {
        fill: #345794;
      }
    </style>
  </defs>
  <path class="cls-1" d="m423.36,709.05l175.6,241.73h-104.7l-162.01-232.17h-15.43v232.17h-85.6V383.57h100.29c74.94,0,129.07,14.09,162.38,42.25,36.74,31.35,55.1,72.74,55.1,124.17,0,40.17-11.52,74.7-34.53,103.6-23.02,28.9-53.39,47.39-91.11,55.47Zm-106.53-65.02h27.18c81.06,0,121.6-30.98,121.6-92.94,0-58.04-39.43-87.07-118.29-87.07h-30.49v180.01Z"/>
  <polygon class="cls-2" points="1080 870.31 1080 950.78 698.49 950.78 698.49 368.27 391.38 223.84 36.39 390.77 0 313.27 290.77 176.53 391.42 129.22 491.99 176.53 782.81 313.27 784.12 315.93 784.12 870.31 1080 870.31"/>
</svg>