<?xml version="1.0" encoding="UTF-8"?>
<svg id="Layer_1" data-name="Layer 1" xmlns="http://www.w3.org/2000/svg" viewBox="0 0 1080 294.5">
  <defs>
    <style>
      .cls-1 {
        fill: #1d1d1b;
      }

      .cls-2 {
        fill: #345794;
      }

      .cls-3 {
        fill: #2e2d2c;
      }
    </style>
  </defs>
  <path class="cls-3" d="m50.48,236.73l40.2,55.33h-23.97l-37.08-53.15h-3.53v53.15H6.5v-129.84h22.96c17.16,0,29.54,3.22,37.17,9.67,8.41,7.18,12.61,16.65,12.61,28.42,0,9.2-2.64,17.1-7.91,23.71-5.27,6.62-12.22,10.85-20.85,12.7Zm-24.39-14.88h6.22c18.56,0,27.83-7.09,27.83-21.28,0-13.29-9.03-19.93-27.08-19.93h-6.98v41.21Z"/>
  <path class="cls-3" d="m129.78,162.22v129.84h-19.59v-129.84h19.59Z"/>
  <path class="cls-3" d="m160.98,292.06v-129.84h27.25c13.06,0,23.38,1.29,30.95,3.87,8.13,2.52,15.5,6.81,22.12,12.87,13.4,12.22,20.1,28.28,20.1,48.18s-6.98,36.1-20.94,48.44c-7.01,6.17-14.35,10.46-22.03,12.87-7.18,2.41-17.35,3.62-30.53,3.62h-26.91Zm19.59-18.42h8.83c8.8,0,16.12-.93,21.95-2.77,5.83-1.96,11.1-5.07,15.81-9.33,9.64-8.8,14.46-20.27,14.46-34.39s-4.77-25.79-14.3-34.65c-8.58-7.9-21.22-11.86-37.93-11.86h-8.83v93.01Z"/>
  <path class="cls-3" d="m352.79,224.45h53.65v4.29c0,9.75-1.15,18.39-3.45,25.9-2.24,6.95-6.03,13.45-11.35,19.51-12.05,13.57-27.39,20.35-46,20.35s-33.72-6.56-46.67-19.68c-12.95-13.17-19.43-28.98-19.43-47.43s6.59-34.81,19.76-47.93c13.17-13.17,29.21-19.76,48.1-19.76,10.15,0,19.62,2.07,28.42,6.22,8.41,4.15,16.68,10.88,24.81,20.18l-13.96,13.37c-10.65-14.18-23.63-21.28-38.94-21.28-13.74,0-25.26,4.74-34.56,14.21-9.31,9.31-13.96,20.97-13.96,34.98s5.19,26.38,15.56,35.74c9.7,8.69,20.21,13.03,31.53,13.03,9.64,0,18.3-3.25,25.98-9.76,7.68-6.56,11.97-14.41,12.87-23.55h-32.38v-18.42Z"/>
  <path class="cls-3" d="m502.73,180.64h-52.05v38.3h50.54v18.42h-50.54v36.29h52.05v18.42h-71.65v-129.84h71.65v18.42Z"/>
  <path class="cls-3" d="m661.12,162.22v129.84h-19.59v-129.84h19.59Z"/>
  <polygon class="cls-2" points="547.76 129.13 302.69 13.9 279.66 3.08 256.64 13.9 11.57 129.13 19.9 146.87 279.66 24.73 528.46 141.72 528.46 292.06 615.79 292.06 615.79 273.64 548.06 273.64 548.06 129.74 547.76 129.13"/>
  <rect class="cls-1" x="925.15" y="273.64" width="19.59" height="18.41"/>
  <rect class="cls-2" x="925.15" y="273.64" width="19.59" height="18.41"/>
  <path class="cls-3" d="m784.64,162.22v90.23l-86.12-90.11h-8.56v129.72h19.6v-90.91l87,90.79h7.69v-129.72h-19.6Z"/>
  <path class="cls-3" d="m906.99,180.64h-52.05v38.3h50.54v18.42h-50.54v36.29h52.05v18.42h-71.65v-129.84h71.65v18.42Z"/>
  <path class="cls-3" d="m971.41,234.28v49.06h16.81v8.11h-25.44v-57.17h8.63Z"/>
  <path class="cls-3" d="m1008.48,242.39v49.07h-8.63v-49.07h-13.14v-8.11h34.88v8.11h-13.11Z"/>
  <path class="cls-3" d="m1029.29,291.46v-57.17h12c5.75,0,10.3.57,13.63,1.7,3.58,1.11,6.83,3,9.74,5.67,5.9,5.38,8.85,12.46,8.85,21.22s-3.07,15.9-9.22,21.33c-3.09,2.72-6.32,4.6-9.7,5.67-3.16,1.06-7.64,1.59-13.44,1.59h-11.85Zm8.63-8.11h3.89c3.88,0,7.1-.41,9.66-1.22,2.57-.86,4.89-2.23,6.96-4.11,4.25-3.88,6.37-8.92,6.37-15.15s-2.1-11.36-6.29-15.26c-3.78-3.48-9.34-5.22-16.7-5.22h-3.89v40.96Z"/>
</svg>